<svg version="1.1" xmlns="http://www.w3.org/2000/svg" viewBox="0 0 2048 2048" width="1024" height="1024"><defs><mask id="hole1" maskUnits="userSpaceOnUse" x="0" y="0" width="2048" height="2048"><rect width="2048" height="2048" fill="white"/><path transform="translate(0,0)" fill="black" d="M 1062.21 1314.61 C 1074.72 1317.4 1078.54 1317.97 1090.63 1314.52 C 1108.26 1323.11 1118.62 1322.47 1136.55 1316.44 C 1134.33 1321.62 1131.88 1325.84 1129.15 1330.74 C 1116.7 1350.88 1101.73 1348.02 1082.68 1336.12 C 1074.53 1331.03 1067.83 1322.31 1062.21 1314.61 z"/></mask><mask id="hole2" maskUnits="userSpaceOnUse" x="0" y="0" width="2048" height="2048"><rect width="2048" height="2048" fill="white"/><path transform="translate(0,0)" fill="black" d="M 1459.8 1519.57 C 1462.02 1521.08 1461.2 1520.09 1461.9 1522.94 C 1460.7 1527.48 1458.83 1529.31 1455.99 1533.01 C 1454.13 1531.2 1454.23 1531.35 1453.3 1528.93 C 1453.92 1524.98 1456.98 1522.57 1459.8 1519.57 z"/></mask></defs><g mask="url(#hole2)"><g mask="url(#hole1)"><path transform="translate(0,0)" fill="rgb(46,41,54)" d="M 804.316 226.956 C 813.813 204.423 816.747 183.732 812.33 159.364 C 810.963 151.824 808.28 141.241 809.163 133.949 C 824.164 106.591 922.954 175.76 886.825 274.739 C 929.119 311.155 955.947 348.297 979.451 398.707 C 992.26 380.449 1014.33 355.365 1036.22 348.73 C 1054.07 345.056 1052.51 381.437 1052.11 390.324 C 1050 435.998 1043.28 495.263 1016.17 532.77 C 1043.55 561.634 1049.86 595.383 1046.44 634.229 C 1044.95 639.705 1040.29 642.381 1035.3 644.507 C 1033.68 643.815 1034.18 644.35 1033.52 643.213 C 1027 656.254 978.941 664.409 966.931 673.086 C 960.645 674.663 950.986 676.061 952.727 684.245 C 958.013 690.884 962.386 691.238 970.516 690.966 C 971.815 689.768 971.571 690.431 971.747 689.24 C 981.539 695.644 1015.07 688.086 1021.85 691.134 C 1025.36 688.312 1030.99 688.326 1035.67 688.088 C 1033.32 694.72 1030.63 701.224 1027.61 707.574 C 995.533 773.367 937.193 813.823 869.812 837.263 C 932.053 869.008 966.853 925.658 996.974 986.158 C 1011.41 1015.15 1024.99 1050.44 1046.16 1074.88 C 1062.89 1094.19 1081.2 1111.21 1097.75 1131.05 C 1169.77 1128.95 1232.21 1203.56 1187.51 1268.58 C 1186.78 1309.54 1165.96 1352.42 1138.04 1381.54 C 1144.74 1411.95 1154.29 1439.93 1165.57 1467.53 C 1203.05 1559.2 1293.34 1660.21 1390.43 1572.66 C 1404.05 1560.37 1413.47 1548.3 1424.9 1534.15 C 1426.09 1512.79 1440 1495.77 1461.91 1494.69 C 1465.5 1491.16 1468.75 1488.61 1472.65 1485.46 C 1473.22 1477.29 1475.13 1461.82 1477.84 1454.33 C 1481.58 1444 1485.87 1441.87 1494.8 1437.79 C 1481.95 1422.52 1482.97 1403.87 1487.75 1385.88 C 1452.68 1354.6 1476.01 1297.42 1519.41 1286.5 C 1520.92 1281.46 1522.48 1276.44 1524.11 1271.43 C 1554.29 1178.21 1622.08 1222.29 1691.59 1237.42 C 1699.74 1239.19 1708.37 1241.95 1716.45 1244.2 C 1761.32 1256.71 1810.17 1263.06 1831.98 1310.6 C 1841.67 1331.72 1836.5 1347.17 1828.89 1367.01 C 1868.5 1398.9 1849.64 1470.28 1800.44 1480.77 C 1795.73 1481.77 1788.01 1481.02 1783.06 1480.75 C 1780.12 1486.98 1779.15 1488.59 1775.13 1494.21 C 1781.52 1503.15 1781.24 1508.93 1778.7 1519.71 C 1776.18 1530.38 1772.89 1541.08 1769.35 1551.44 C 1784.99 1580.22 1779.25 1606.72 1775.39 1636.13 C 1774.76 1640.94 1781.1 1665.35 1781.72 1673.85 C 1779.61 1676.54 1776.97 1678.97 1774.51 1681.38 C 1776.63 1688.71 1778.31 1696.25 1780.05 1703.69 C 1793.2 1704.71 1812.16 1709.86 1817.78 1721.18 C 1841.45 1768.87 1776.33 1787.13 1742.03 1776.61 C 1726.09 1771.72 1719.62 1766.7 1712.33 1754.08 C 1680.89 1766.58 1646.07 1767.68 1613.9 1757.2 C 1602.05 1762.3 1592.12 1765.72 1579.97 1769.63 C 1578.3 1772.42 1575.96 1775.97 1573.92 1778.43 C 1566.28 1787.46 1555.39 1793.11 1543.61 1794.15 C 1507.53 1797.13 1490.13 1760.65 1488.52 1730.06 C 1476.05 1725.55 1472.19 1723.67 1461.96 1715.56 C 1452.75 1718.56 1443.48 1721.38 1434.17 1724.02 C 1420.24 1752.59 1386.56 1761.02 1363.6 1737.54 C 1342.4 1715.87 1337.57 1667.58 1361.56 1646.02 C 1370.3 1638.27 1381.86 1634.48 1393.49 1635.54 C 1407.79 1636.84 1416.34 1645.24 1424.71 1655.64 L 1432.84 1651.79 C 1432.93 1615.03 1451.23 1590.53 1458.83 1560.04 L 1457.61 1559.29 C 1455.25 1559.42 1451.75 1559.01 1450.28 1560.86 C 1423.19 1595.03 1387.4 1629.67 1343.2 1639.59 C 1208.86 1669.71 1129.4 1505.37 1103.16 1401.51 C 1093.02 1397.03 1090.28 1394.86 1085.87 1384.73 C 1048.25 1362.54 1005.14 1319.29 1008.9 1271.78 C 1009.29 1266.91 1010.68 1261.57 1011.86 1256.82 C 985.021 1241.14 949.325 1207.29 929.204 1183.49 C 929.191 1226.81 918.033 1295.72 913.404 1341.79 C 904.422 1430.31 898.115 1519.07 894.491 1607.96 C 920.36 1611.74 937.395 1616.82 961.062 1630.55 C 1000.75 1653.59 1037.64 1712.23 1011.16 1756.91 C 999.015 1777.41 964.491 1790.54 941.174 1794.28 C 880.293 1803.97 807.611 1798.92 754.41 1765.98 C 707.319 1736.82 721.153 1674.54 726.761 1628.63 C 729.851 1605.23 732.284 1581.75 734.057 1558.22 C 738.343 1492.92 731.772 1448.65 720.316 1385.64 C 712.352 1387.07 707.331 1387.61 699.23 1388.19 C 670.412 1445.55 647.801 1501.81 634.514 1564.9 C 630.068 1586.01 625.922 1608.57 625.256 1630.15 C 624.067 1668.64 636.98 1712.04 613.409 1746.21 C 593.043 1775.74 547.804 1790.28 513.753 1796.32 C 465.877 1803.89 399.692 1804.91 357.7 1778.35 C 320.786 1755 340.061 1700.4 360.966 1672.73 C 384.086 1642.12 417.438 1620.15 455.904 1614.16 C 456.473 1588.18 461.857 1558.74 466.291 1533.01 C 458.014 1538.68 449.416 1544.85 440.497 1549.39 C 325.315 1607.98 187.009 1537.92 230.021 1398.36 C 219.883 1401.84 210.621 1406.99 200.631 1410.83 C 193.666 1413.5 185.814 1411.92 184.462 1403.69 C 181.722 1387.02 191.216 1365.15 199.235 1351.11 C 219.045 1316.65 250.881 1290.48 285.706 1272.1 C 292.183 1268.68 307.811 1261.47 314.798 1266.45 C 319.693 1269.94 317.542 1280.16 316.879 1285.48 C 315.62 1295.58 314.602 1306.14 315.971 1316.36 C 318.127 1334.67 324.205 1351.57 327.395 1369.66 C 331.249 1392.79 330.019 1418.82 316.155 1438.65 C 313.738 1442.11 309.063 1447.18 303.238 1444.6 C 302.177 1444.13 298.921 1439.83 298.196 1438.73 C 289.812 1426.04 282.504 1416.89 270.854 1407.25 C 269.996 1411.12 269.242 1415.02 268.59 1418.94 C 260.927 1465.62 288.795 1507.38 336.477 1513.9 C 397.555 1524.28 466.813 1473.21 483.525 1414.84 C 501.815 1350.95 489.576 1271.06 492.858 1204.83 C 495.345 1154.62 504.706 1108.15 511.547 1058.77 C 476.126 1091.71 424.839 1135.21 372.867 1128.43 C 314.908 1120.86 276.141 1063.18 251.78 1015.2 C 244.854 1001.55 238.853 987.21 231.288 973.935 C 225.218 967.132 217.187 961.793 210.217 955.895 C 151.921 906.561 139.526 824.005 203.866 775.204 C 190.181 740.417 178.359 704.03 164.162 669.493 C 151.942 639.764 155.796 633.783 187.965 625.722 C 217.167 618.201 246.469 611.425 275.993 605.37 C 301.528 600.133 305.433 629.765 312.017 648.964 L 330.368 702.335 C 339.449 728.577 349.471 754.581 357.478 781.153 C 363.37 800.706 353.597 805.892 337.456 811.836 C 340.187 832.242 349.135 836.664 358.702 854.134 C 368.85 872.665 370.486 895.505 364.671 915.665 C 375.937 928.521 393.241 945.326 405.529 958.022 C 420.535 942.359 435.344 926.507 449.952 910.471 C 484.648 871.973 504.79 844.907 554.13 823.689 C 491.849 792.922 440.709 738.825 416.974 673.203 C 338.498 673.096 283.207 521.953 270.979 457.43 C 256.581 381.455 361.82 453.859 383.622 471.743 C 385.239 413.669 408.488 359.798 446.304 316.194 C 433.926 295.361 426.988 271.749 426.128 247.532 C 424.971 216.908 432.203 185.852 453.594 162.921 C 460.495 155.523 481.284 140.055 486.255 157.591 C 488.345 166.192 488.764 175.228 490.316 183.982 C 495.275 211.946 507.727 232.899 528.044 252.344 C 598.369 199.411 724.58 196.326 804.316 226.956 z"/><path transform="translate(0,0)" fill="rgb(138,94,172)" d="M 537.389 260.332 C 568.691 236.347 618.197 225.496 657.102 221.084 C 853.378 198.827 985.681 351.335 1003.34 535.594 C 1005.84 538.666 1008.94 541.81 1011.51 544.991 C 1035.44 574.518 1037.07 607.384 1033.52 643.213 C 1027 656.254 978.941 664.409 966.931 673.086 C 960.645 674.663 950.986 676.061 952.727 684.245 C 958.013 690.884 962.386 691.238 970.516 690.966 C 971.815 689.768 971.571 690.431 971.747 689.24 C 981.539 695.644 1015.07 688.086 1021.85 691.134 C 954.834 843.699 734.942 878.513 590.678 826.829 C 512.487 798.816 462.441 746.154 428.193 671.268 C 431.224 668.805 438.318 663.165 436.809 659.011 C 431.317 657.627 418.488 661.939 411.904 661.471 C 394.844 660.257 379.397 648.201 368.151 636.849 C 328.615 596.94 282.249 490.646 282.98 435.889 C 335.767 442.253 375.079 478.263 411.668 514.094 C 416.585 518.909 423.382 529.345 428.895 530.614 L 429.616 529.222 C 426.868 511.456 407.666 494.471 394.819 482.273 C 394.444 428.211 417.278 366.655 453.366 326.33 C 461.201 335.439 469.485 340.366 481.834 339.256 C 519.006 335.916 550.695 313.534 548.863 273.485 C 545.263 266.984 542.847 265.178 537.389 260.332 z"/><path transform="translate(0,0)" fill="rgb(46,41,54)" d="M 725.764 460.585 C 738.86 462.482 749.64 492.974 749.202 505.406 C 748.529 505.833 745.964 507.445 746.01 507.804 C 747.347 518.348 749.972 530.705 749.386 541.089 C 748.746 552.451 746.693 558.402 743.059 568.414 C 747.715 572.123 748.622 573.598 752.069 578.321 C 705.621 561.872 666.607 565.286 622.739 589.463 C 619.494 591.252 613.895 595.042 610.426 594.083 C 611.054 592.473 611.533 591.14 612.065 589.497 C 609.308 586.236 606.569 583.253 603.688 580.114 C 588.774 559.356 578.127 523.703 587.963 499.08 L 589.388 498.532 C 591.147 502.184 591.979 519.136 592.363 523.911 C 637.879 496.761 688.193 488.387 740.364 495.514 C 736.778 481.228 732.855 473.533 725.764 460.585 z"/><path transform="translate(0,0)" fill="rgb(252,238,212)" d="M 693.097 503.417 L 703.438 503.062 C 693.76 522.814 694.43 537.931 701.912 558.072 C 680.956 558.999 661.856 560.86 642.342 569.68 C 634.391 573.273 627.042 578.019 619.145 581.655 L 616.207 578.962 C 603.571 562.751 599.749 552.332 595.723 532.322 C 627.632 514.334 657.121 506.946 693.097 503.417 z"/><path transform="translate(0,0)" fill="rgb(46,41,54)" d="M 918.207 430.748 C 931.954 431.189 951 454.783 946.684 469.433 C 945.123 470.486 943.671 471.244 941.933 471.968 C 942.255 475.699 945.763 480.819 947.105 485.037 C 952.46 501.865 952.254 512.956 950.674 530.121 C 958.193 533.424 960.632 535.085 966.948 540.012 C 921.912 533.018 895.312 537.183 855.536 560.709 C 851.812 560.773 849.139 559.353 846.321 556.851 C 829.468 541.881 826.476 519.012 824.013 498.699 C 856.149 477.374 901.346 466.635 939.452 462.153 C 933.933 446.347 928.472 442.96 918.207 430.748 z"/><path transform="translate(0,0)" fill="rgb(252,238,212)" d="M 898.521 479.11 C 901.4 478.663 900.125 478.35 902.546 479.366 C 895.806 500.745 896.377 509.542 904.044 530.319 C 883.919 535.422 874.031 540.374 856.49 550.986 C 853.419 550.808 854.947 551.17 852.012 548.359 C 840.229 534.068 836.844 520.68 834.723 502.757 C 854.585 491.777 876.678 484.877 898.521 479.11 z"/><path transform="translate(0,0)" fill="rgb(46,41,54)" d="M 737.469 409.56 C 747.801 414.604 745.386 440.044 736.051 446.628 C 728.696 451.815 724.044 454.433 715.065 456.093 C 679.922 462.588 645.22 450.224 610.238 448.875 C 588.116 448.074 574.782 455.532 558.972 470.363 L 556.4 471.804 L 555.32 471.031 C 554.998 468.092 555.746 465.047 556.908 462.456 C 587.487 394.297 671.358 450.52 721.432 431.721 C 731.708 427.863 734.213 418.933 737.469 409.56 z"/><path transform="translate(0,0)" fill="rgb(46,41,54)" d="M 864.605 305.156 C 882.893 303.312 904.26 312.176 905.756 332.508 L 904.918 333.423 C 900.764 330.772 895.334 326.948 890.929 324.914 C 860.366 310.799 847.439 352.611 837.96 372.626 C 832.916 382.263 817.858 402.165 803.787 384.611 C 800.388 378.146 812.007 372.32 813.963 369.002 C 829.651 342.393 831.57 315.965 864.605 305.156 z"/><path transform="translate(0,0)" fill="rgb(46,41,54)" d="M 914.865 630.366 C 940.482 632.058 948.47 654.5 935.635 675.619 C 933.228 679.58 928.863 683.166 925.368 686.288 C 935.817 692.188 943.735 698.963 944.15 711.993 C 945.056 740.438 908.799 747.26 891.383 729.65 C 889.174 727.416 886.138 723.395 886.214 720.174 C 891.671 718.168 901.324 727.029 907.138 728.454 C 911.766 729.588 915.2 729.219 919.859 728.994 C 926.982 726.254 932.312 723.133 933.541 714.716 C 936.452 694.777 912.881 694.812 906.635 687.191 C 910.366 680.371 940.056 668.981 929.577 650.526 C 914.823 624.541 893.379 652 879.333 659.193 L 878.011 658.619 L 877.118 655.932 C 877.453 653.09 877.983 651.219 880.028 649.137 C 891.064 637.902 899.166 631.724 914.865 630.366 z"/><path transform="translate(0,0)" fill="rgb(46,41,54)" d="M 313.15 482.861 C 315.2 483.307 317.212 483.916 319.166 484.681 C 353.126 497.911 390.225 546.562 405.307 579.229 C 378.896 584.335 382.191 603.304 401.396 616.196 C 394.291 624.986 380.92 614.712 376.662 607.389 C 373.21 601.485 372.281 594.441 374.085 587.845 C 376.5 579.248 381.783 575.421 389.115 571.422 C 375.727 547.221 355.874 527.061 336.257 507.9 C 329.797 501.59 316.687 490.229 313.15 482.861 z"/><path transform="translate(0,0)" fill="rgb(46,41,54)" d="M 817.659 553.277 C 826.997 552.349 837.249 554.585 844.878 560.21 C 851.863 565.359 856.38 573.19 857.342 581.814 C 858.411 591.271 855.585 600.755 849.513 608.083 C 843.89 614.795 830.069 622.12 822.485 615.504 C 825.852 609.889 838.63 611.644 845.929 590.375 C 846.406 576.814 841.895 566.621 827.265 564.648 C 806.033 561.786 789.341 574.55 773.321 586.352 C 781.058 565.584 796.817 556.504 817.659 553.277 z"/><path transform="translate(0,0)" fill="rgb(138,94,172)" d="M 247.543 771.351 C 258.76 769.842 282.869 775.297 277.511 792.365 C 273.83 804.09 252.8 810.199 241.846 815.08 C 224.933 822.617 217.693 833.944 211.409 850.981 C 229.544 832.615 254.789 808.815 285.102 821.184 C 294.305 824.939 297.833 833.035 301.008 841.876 C 272.881 844.547 262.42 852.504 249.44 877.673 C 263.939 866.151 276.456 852.983 296.044 852.131 C 321.227 851.035 329.673 885.769 313.407 901.084 C 311.316 903.053 310.041 903.194 307.459 903.071 C 304.54 900.564 304.142 896.729 302.608 892.697 C 300.323 895.148 295.702 910.431 296.654 913.84 C 301.403 914.491 302.882 909.878 306.032 911.631 C 315.417 916.853 322.423 929.479 324.452 939.442 C 325.875 946.43 322.579 957.55 324.361 961.407 L 326.219 960.474 C 337.448 944.778 332.002 923.547 319.88 909.971 C 340.113 889.17 336.678 860.66 312.826 844.581 C 310.206 833.125 309.211 830.672 303.234 820.8 L 326.653 814.2 C 331.041 844.146 356.262 856.083 357.346 887.887 C 357.578 894.722 353.539 920.201 354.376 922.951 C 361.391 924.94 390.844 959.053 398.757 966.314 C 409.702 976.357 421.718 995.91 431.246 1008.4 C 427.562 989.554 423.653 982.061 412.691 966.571 C 464.386 918.005 500.383 854.84 569.677 830.969 C 653.131 867.86 765.804 869.349 852.224 842.325 C 923.942 874.429 957.93 934.974 990.846 1002.28 C 1001.31 1022.81 1010.14 1044.71 1022.81 1064.02 C 1039.13 1088.91 1062.97 1108.91 1082.72 1130.96 C 1085.21 1133.75 1084.44 1137 1083.78 1140.21 C 1088.03 1141.75 1099.64 1141.47 1105.11 1141.83 C 1114.07 1142.35 1122.91 1144.1 1131.39 1147.04 C 1154.39 1155.28 1173.2 1172.28 1183.74 1194.32 C 1193.55 1214.96 1191.8 1231.98 1184.25 1252.7 C 1174.55 1235.32 1166.55 1229.01 1147.59 1223.53 C 1144.88 1216.42 1142.61 1212.12 1139.03 1205.35 C 1139.49 1216.67 1140.55 1233.42 1137.14 1244.46 C 1131.18 1263.81 1117.65 1279.95 1095.49 1272.45 C 1066.05 1262.48 1090.6 1230.58 1083.91 1215.94 C 1079.86 1215.06 1080.31 1219.44 1077.28 1219.26 C 1062.55 1218.35 1052.88 1207.45 1042.57 1199.09 C 1045.84 1208.5 1047.01 1210.57 1052.55 1218.41 C 1034.38 1225.48 1028.21 1230.75 1016.79 1246.57 C 984.424 1225.26 954.17 1195.9 929.951 1165.73 C 929.945 1162.42 929.914 1159.12 929.855 1155.81 C 928.779 1087.84 914.449 955.251 864.183 906.565 C 869.531 921.904 876.922 937.935 882.631 953.725 C 893.441 984.201 901.619 1015.55 907.076 1047.42 C 917.164 1104.3 919.621 1162.28 914.381 1219.81 C 910.873 1262.84 903.946 1308.57 899.705 1352.35 C 890.993 1438.03 885.236 1523.98 882.444 1610.06 C 878.212 1610.58 867.93 1611.29 866.236 1615.36 C 868.47 1617.78 888.32 1618.77 893.723 1619.56 C 900.66 1620.63 907.527 1622.12 914.289 1624 C 952.432 1634.47 977.469 1653.13 996.955 1687.21 C 1012.06 1717.87 1012.93 1744.88 982.942 1766.38 C 983.676 1728.56 980.693 1701.11 942.384 1683.31 C 968.643 1713.62 974.557 1733.3 969.54 1772.96 C 948.586 1780.87 932.312 1783.54 909.922 1785.26 C 917.408 1749 910.048 1720.18 875.594 1702.71 C 879.616 1707.95 883.458 1713.33 887.112 1718.83 C 902.088 1741.73 902.752 1760.21 897.348 1786.02 C 848.217 1786.26 741.242 1776.42 734.433 1713.35 C 730 1672.29 741.723 1617.14 745.263 1574.34 C 750.934 1505.77 745.571 1449.85 731.85 1383.02 C 752.524 1375.58 768.189 1367.39 780.829 1348.82 C 762.316 1356.32 745.741 1364.97 726.297 1370.55 C 714.988 1373.8 695.274 1375.45 685.88 1381.24 C 686.158 1383.45 686.752 1387.48 685.746 1389.41 C 679.859 1400.73 674.022 1412.15 668.693 1423.73 C 656.533 1450.56 646.018 1478.11 637.208 1506.22 C 625.279 1544.82 615.881 1585.91 613.062 1626.61 C 610.583 1663.41 626.662 1717.96 596.593 1746.96 C 561.472 1780.82 496.528 1787.78 449.843 1788.41 C 440.42 1748.87 448.137 1732.55 471.359 1700.59 C 433.917 1718.75 429.371 1750.27 436.944 1787.68 C 415.317 1785.5 401.862 1783.63 381.26 1776.81 C 373.899 1742.66 387.821 1719.66 403.803 1692.16 C 371.348 1710.11 367.224 1736.95 368.082 1771.06 C 350.945 1756.76 346.958 1746.98 351.556 1724.54 C 363.403 1666.74 418.932 1628.35 475.329 1622.13 C 480.944 1621.51 486.029 1621.28 491.541 1619.9 L 491.928 1618.61 C 487.734 1615.29 473.757 1614.56 467.769 1613.97 C 469.736 1585.4 475.723 1550.94 480.682 1522.44 C 489.022 1474.52 496.9 1428.59 502.651 1380.28 C 509.826 1320.02 503.008 1264.28 505.267 1204.24 C 507.245 1151.65 519.657 1098.8 523.702 1047.06 C 540.114 1027.66 548.121 1016.4 554.435 991.651 C 545.281 1001.37 536.282 1015.68 526.348 1026.59 C 493.72 1062.43 445.097 1108.09 395.993 1116.2 C 371.972 1120.32 347.618 1111.68 328.81 1097.41 C 286.699 1065.47 265.583 1016.85 242.707 971.027 C 240.055 965.714 221.593 951.335 216.182 946.523 C 176.86 911.546 156.225 848.159 191.201 803.052 C 206.504 783.33 223.026 774.66 247.543 771.351 z"/><path transform="translate(0,0)" fill="rgb(224,107,62)" d="M 1583.06 1224.28 C 1596.43 1223.13 1609.91 1226.18 1622.78 1229.69 C 1671.11 1242.84 1719.66 1255.56 1767.77 1269.44 C 1789.9 1275.83 1810.27 1291.73 1820.66 1312.37 C 1830.13 1331.09 1825.45 1345.31 1819.23 1363.5 C 1796.78 1359.13 1779.45 1365.53 1765.48 1383.97 C 1753.19 1400.41 1747.93 1421.07 1750.86 1441.39 C 1753.32 1457.39 1760.91 1467.68 1773.51 1477.06 C 1769.08 1486.74 1766.58 1490.26 1757.5 1495.29 C 1754.92 1496.32 1752.28 1497.18 1749.6 1497.87 C 1738.57 1500.8 1728.27 1501.21 1716.97 1499.92 C 1684.69 1496.21 1538.85 1457.57 1514.45 1442.42 C 1504.51 1436.25 1498.19 1427.14 1495.86 1415.71 C 1494.7 1410.05 1494.8 1404.5 1495.8 1398.83 C 1499.96 1375.06 1535.17 1262.89 1547.01 1245.68 C 1555.81 1232.9 1568.17 1226.83 1583.06 1224.28 z"/><path transform="translate(0,0)" fill="rgb(46,41,54)" d="M 1677.08 1322.6 C 1684.74 1323.15 1711.44 1330.79 1717.24 1335.64 C 1717.95 1341.88 1705.63 1379.47 1702.19 1386 C 1695.12 1384.99 1664.77 1377.23 1661.74 1372.17 C 1662.48 1362.89 1673.07 1331.34 1677.08 1322.6 z"/><path transform="translate(0,0)" fill="rgb(46,41,54)" d="M 1566.97 1290.42 C 1573.7 1291.13 1599.8 1298.55 1605.17 1302.74 C 1605.83 1309.33 1593.61 1345.81 1590.24 1352.56 C 1584.55 1352.19 1551.83 1343.14 1551.46 1339.69 C 1550.63 1331.86 1563.43 1297.07 1566.97 1290.42 z"/><path transform="translate(0,0)" fill="rgb(224,107,62)" d="M 1506.24 1516.76 C 1515.11 1521.09 1535.13 1528.31 1544.56 1530.85 C 1601.2 1546.06 1707.51 1585.98 1761.81 1558.2 C 1769.77 1578.53 1770.18 1590.57 1769.03 1612.7 C 1760.62 1583.59 1746.12 1564.45 1710.7 1583.98 C 1684.77 1603.45 1705.28 1638.05 1708.03 1663.49 C 1709.57 1677.76 1709.96 1687.13 1721.99 1692.38 C 1723.16 1700.86 1723.86 1706.12 1726.21 1714.29 C 1707.42 1729.38 1712.77 1739.59 1708.75 1744.62 C 1679 1756.58 1655.19 1755.56 1624.38 1750.46 C 1633.82 1730.2 1628.75 1697.53 1605.76 1688.49 C 1594.51 1684.07 1580.66 1692.52 1570.6 1697.67 C 1551.48 1670.34 1516.97 1666.55 1497.04 1696.13 C 1492.07 1703.49 1490.49 1710.99 1488.58 1719.5 C 1482.27 1716.82 1478.44 1714.67 1472.45 1711.28 C 1481.85 1693.88 1482.02 1671.11 1467.18 1655.77 C 1459.9 1648.25 1452.33 1647.56 1442.43 1647.6 C 1444.87 1622.99 1461.83 1580.48 1471.9 1556.47 C 1475.43 1548.05 1482.71 1545.72 1489.6 1527.61 C 1497.66 1525.53 1500.7 1522.46 1506.24 1516.76 z"/><path transform="translate(0,0)" fill="rgb(224,107,62)" d="M 279.373 616.218 C 292.274 614.242 296.022 637.401 299.544 647.755 L 316.15 696.478 C 325.741 724.228 336.266 752.226 345.123 780.224 C 346.421 784.328 347.347 790.994 345.704 795.146 C 338.619 800.766 302.767 809.158 290.806 812.841 C 287.061 811.421 282.864 810.163 279.024 808.924 C 289.744 796.049 292.737 783.864 281.146 770.269 C 263.278 753.682 233.592 760.497 213.988 769.93 C 209.362 756.373 168.944 652.632 169.398 645.927 C 179.362 636.515 259.93 620.397 279.373 616.218 z"/><path transform="translate(0,0)" fill="rgb(138,94,172)" d="M 302.547 1277.76 L 304.078 1277.85 L 304.93 1279.02 C 304.013 1289.04 302.114 1304.8 303.245 1314.37 C 308.736 1360.85 328.517 1384.75 307.389 1430.6 C 293.282 1410.17 286.246 1402.33 265.138 1388.17 C 257.446 1408.74 253.584 1428.62 256.854 1450.61 C 260.093 1473.94 272.626 1494.96 291.603 1508.9 C 314.472 1525.72 344.548 1529.53 372.026 1525.17 C 411.97 1518.83 447.896 1495.66 471.413 1462.92 C 474.499 1458.63 477.633 1454.35 480.771 1450.08 C 477.777 1467.11 474.886 1484.16 472.095 1501.22 C 471.301 1505.66 470.451 1510.08 469.546 1514.5 C 390.53 1589.87 230.046 1569.48 233.839 1440.14 C 234.424 1420.2 240.042 1400.74 247.018 1382.18 C 225.701 1386.13 215.942 1390.45 196.571 1399.55 C 197.442 1346.49 258.211 1297.39 302.547 1277.76 z"/><path transform="translate(0,0)" fill="rgb(158,95,59)" d="M 1488.15 1457.57 C 1526.73 1482.33 1608.42 1497.97 1653.63 1511.92 C 1686.83 1522.17 1735.67 1529.35 1768.6 1516.51 C 1766.63 1523.94 1762.62 1541.85 1759.73 1547.67 C 1756.71 1549.69 1753.35 1551.43 1749.99 1552.85 C 1701.07 1573.48 1559.33 1527.75 1509.27 1507.92 C 1508.99 1490.03 1501.02 1481.61 1483.41 1480.78 C 1484.66 1471.99 1485.84 1466.05 1488.15 1457.57 z"/><path transform="translate(0,0)" fill="rgb(239,164,51)" d="M 1108.04 1365.96 C 1126.01 1365.6 1127.06 1375.2 1130.37 1391.4 C 1159.77 1534.98 1293.93 1720.55 1428.64 1544.37 C 1430.21 1542.32 1433.17 1545.35 1436.22 1544.57 C 1437.25 1542.05 1436.26 1537 1435.59 1534.14 C 1432.56 1521.19 1444.81 1506.44 1457.8 1504.56 L 1459.17 1505.92 C 1459.22 1510.98 1449.43 1518.15 1445.75 1523.17 C 1439.13 1540.27 1454.75 1536.31 1446.15 1549.43 C 1403.67 1614.23 1321.89 1661.5 1248.02 1616.01 C 1171.07 1568.63 1133.1 1476.4 1111.08 1392.68 C 1110.74 1392.6 1110.4 1392.52 1110.06 1392.43 L 1108.47 1392.02 C 1092.1 1387.86 1092.71 1373.51 1108.04 1365.96 z"/><path transform="translate(0,0)" fill="rgb(252,238,212)" d="M 473.803 161.821 C 474.353 162.394 475.254 163.212 475.369 164.016 C 477.828 181.716 480.431 199.971 487.603 216.444 C 496.068 235.885 508.266 251.952 525.121 264.792 C 528.955 268.131 535.348 272.862 537.3 277.577 C 542.397 289.889 529.836 305.336 520.969 312.839 C 514.52 318.297 508.77 321.257 501.329 324.227 C 480.692 330.915 470.243 332.286 457.941 313.155 C 430.769 270.896 426.954 191.874 473.803 161.821 z"/><path transform="translate(0,0)" fill="rgb(252,238,212)" d="M 820.456 139.239 C 822.714 139.682 825.308 140.598 827.428 141.467 C 873.009 160.167 894.513 221.758 877.132 266.256 L 875.37 266.12 C 853.95 250.297 838.898 242.461 815.124 231.348 C 829.026 197.86 828.542 174.329 820.456 139.239 z"/><path transform="translate(0,0)" fill="rgb(224,107,62)" d="M 1731.05 1586.12 C 1739.44 1585.72 1751.29 1588.2 1754.15 1597.45 C 1761.34 1620.64 1767.97 1647.47 1771.46 1671.47 C 1761.97 1678.32 1759.15 1678.99 1747.96 1682.15 C 1738.48 1683.95 1731.23 1683.44 1721.74 1682.61 C 1719.46 1670.39 1716.98 1658.21 1714.3 1646.08 C 1708.44 1620.06 1695.81 1594.74 1731.05 1586.12 z"/><path transform="translate(0,0)" fill="rgb(138,94,172)" d="M 1035.35 361.635 L 1036.54 361.696 C 1037.55 362.441 1038.54 362.77 1038.67 364.055 C 1043.3 410.439 1034.32 474.903 1013.52 515.676 L 1009.79 495.137 C 1003.84 464.956 997.255 440.379 985.069 411.871 C 998.777 390.555 1013.38 374.504 1035.35 361.635 z"/><path transform="translate(0,0)" fill="rgb(224,107,62)" d="M 1780.28 1713.02 C 1790.48 1714.73 1803.19 1717.57 1809.31 1726.07 C 1823.68 1746.02 1799.31 1764.27 1781.31 1767.5 C 1767.48 1769.98 1759.03 1769.73 1745.99 1767.55 C 1721.14 1759.68 1710.7 1743.91 1729.92 1722.67 C 1744.9 1739.33 1771.65 1733.6 1780.28 1713.02 z"/><path transform="translate(0,0)" fill="rgb(158,95,59)" d="M 1061.18 1227.14 C 1064.52 1226.81 1069.16 1227.02 1071.66 1229.44 C 1073.12 1233.7 1070.77 1240.52 1069.69 1245.47 C 1009.59 1260.45 1051.13 1350.61 1107.27 1355.5 C 1100.47 1358.51 1097.58 1359.66 1091.95 1364.6 C 1090.05 1367.19 1088.45 1370.54 1086.95 1373.42 C 1050.82 1351.66 1004.58 1301.27 1024.08 1255.51 C 1031.24 1238.7 1044.43 1231.48 1061.18 1227.14 z"/><path transform="translate(0,0)" fill="rgb(224,107,62)" d="M 1510.92 1698.97 C 1521.85 1698.49 1529.24 1702.27 1535.72 1711.41 C 1549.07 1730.2 1557.98 1767.75 1535.6 1782.91 C 1503.83 1784.54 1483.6 1717.87 1510.92 1698.97 z"/><path transform="translate(0,0)" fill="rgb(224,107,62)" d="M 1369.06 1656.9 C 1400.47 1658.05 1415.02 1722.83 1390.23 1739.18 C 1357.4 1740.03 1342.46 1671.53 1369.06 1656.9 z"/><path transform="translate(0,0)" fill="rgb(224,107,62)" d="M 1814.46 1393.05 C 1849.34 1392.8 1841.36 1438.33 1823.54 1454.09 C 1819.35 1457.79 1816.68 1458.71 1811.61 1460.71 C 1776.38 1463.19 1779.43 1405.73 1814.46 1393.05 z"/><path transform="translate(0,0)" fill="rgb(158,95,59)" d="M 1149.43 1234.32 C 1205.53 1258.35 1161.37 1338.62 1135.27 1369.32 C 1128.56 1361.08 1127.62 1360.12 1117.89 1355.82 C 1143.58 1342.47 1171.17 1281.75 1143.86 1259.66 C 1146.68 1250.85 1148.66 1243.54 1149.43 1234.32 z"/><path transform="translate(0,0)" fill="rgb(224,107,62)" d="M 1800.94 1372.12 C 1823.41 1370.57 1830.76 1377.97 1838.95 1398.03 C 1798.81 1361.01 1760.94 1432.14 1791.16 1460.62 C 1800.77 1466.34 1802.25 1465.84 1813.34 1466.74 C 1792.15 1473.87 1770.58 1473.22 1763.05 1447.23 C 1754.46 1417.55 1769.3 1381.05 1800.94 1372.12 z"/><path transform="translate(0,0)" fill="rgb(158,95,59)" d="M 1500.14 1446.76 C 1509.72 1449.45 1524.23 1459.02 1536.09 1462.62 C 1586.45 1477.91 1637.01 1492.88 1688.22 1505.12 C 1709.39 1510.18 1734.81 1513.43 1755.98 1506.81 C 1761.18 1505.15 1763.49 1500.68 1769.41 1503.63 L 1770 1505.86 C 1768.71 1509.55 1769.26 1508.32 1765.92 1511.13 C 1752.54 1516.94 1740.3 1516.99 1726.27 1517.98 C 1697.61 1520 1500.68 1468.79 1492.32 1451.83 C 1494.07 1448.95 1496.93 1448.21 1500.14 1446.76 z"/><path transform="translate(0,0)" fill="rgb(224,107,62)" d="M 1529.78 1685.2 C 1572.99 1682.59 1596.49 1766.72 1549.25 1783.39 L 1546.54 1783.56 L 1546.34 1782.42 C 1563.9 1758.88 1553.28 1712.03 1528.51 1696.6 C 1522.57 1692.89 1518.5 1692.81 1511.85 1692.53 C 1518.61 1688.73 1522.19 1686.78 1529.78 1685.2 z"/><path transform="translate(0,0)" fill="rgb(224,107,62)" d="M 1383.44 1645.06 C 1388.61 1644.88 1393.88 1644.51 1398.85 1646.56 C 1424.43 1657.13 1433.41 1695.84 1424.94 1720.07 C 1421.45 1730.05 1414.42 1735.17 1405.34 1739.32 C 1401.46 1740.28 1402.62 1740.79 1399.94 1739.66 C 1409.07 1724.96 1410.67 1713.9 1407.5 1696.8 C 1403.48 1675.1 1395.07 1655.08 1371.02 1650.73 C 1375.66 1648.13 1378.59 1646.99 1383.44 1645.06 z"/><path transform="translate(0,0)" fill="rgb(224,107,62)" d="M 1595.75 1696.96 C 1614.09 1694.96 1623.84 1725.53 1618.46 1739.64 C 1615.32 1747.89 1603.22 1750.96 1595.33 1754.13 L 1583.7 1758.29 C 1586.47 1738.76 1583.84 1723.3 1575.42 1705.62 C 1582.23 1702.5 1588.81 1699.79 1595.75 1696.96 z"/><path transform="translate(0,0)" fill="rgb(224,107,62)" d="M 1449.3 1657.07 C 1465.55 1657.51 1474.92 1686.25 1467.29 1698.86 C 1462.56 1706.69 1457.39 1706.93 1449.28 1709.32 L 1436.89 1713.52 C 1437.6 1693.16 1437.61 1683.03 1428.97 1664.35 C 1436.96 1660.92 1440.97 1659.33 1449.3 1657.07 z"/><path transform="translate(0,0)" fill="rgb(138,94,172)" d="M 1138.77 1268.7 C 1147.83 1277.24 1145.32 1289.76 1142.31 1300.43 C 1126.15 1312.36 1108.71 1313.88 1092.34 1301.89 C 1085.02 1293 1084.5 1289.7 1081.86 1278.56 C 1104.59 1291.04 1121.67 1287.54 1138.77 1268.7 z"/></g><path transform="translate(0,0)" fill="rgb(224,107,62)" d="M 1512.31 1298.62 C 1514.26 1298.88 1513.49 1298.43 1514.67 1299.92 C 1512.43 1307.24 1492.34 1372.2 1490.53 1373.61 L 1489.06 1372.56 L 1488.41 1371.48 C 1472.71 1344.99 1487.1 1313.09 1512.31 1298.62 z"/><path transform="translate(0,0)" fill="rgb(224,107,62)" d="M 1764 1687.06 L 1765.45 1687.2 C 1768.62 1692.09 1771.14 1704.12 1769.72 1710.38 C 1768.74 1714.8 1765.89 1718.56 1761.91 1720.7 C 1755.45 1724.24 1748.44 1723.26 1741.7 1721.53 C 1734.14 1716.39 1733.13 1702.41 1731.31 1693 C 1744.03 1692.86 1752.32 1691.74 1764 1687.06 z"/><path transform="translate(0,0)" fill="rgb(138,94,172)" d="M 1066.39 1256.79 L 1068.65 1257.08 C 1075.6 1264.38 1071.54 1283.47 1074.7 1293.28 C 1076.79 1299.75 1077.84 1301.16 1081.39 1306.86 C 1075.77 1306.39 1072.88 1305.96 1067.39 1304.89 C 1044.94 1296.1 1046.65 1268.36 1066.39 1256.79 z"/><path transform="translate(0,0)" fill="rgb(239,164,51)" d="M 1485.52 1490.1 C 1511.68 1491.98 1499.07 1517.57 1486.99 1517.26 C 1484.88 1514.56 1485.66 1516.16 1485.89 1511.66 C 1489.55 1508.22 1490.29 1507.87 1492.24 1503.42 C 1490.15 1499.57 1491.57 1500.98 1488.05 1498.8 C 1478.64 1498.13 1475.26 1511.73 1468.27 1509.97 L 1466.91 1507.17 C 1467.37 1498.88 1478.12 1492 1485.52 1490.1 z"/><path transform="translate(0,0)" fill="rgb(239,164,51)" d="M 1476.52 1516.63 C 1480.32 1519.61 1480.47 1526.21 1478.81 1530.47 C 1474.95 1540.38 1468.86 1545.44 1459.53 1549.9 L 1458.43 1549.68 C 1456.14 1541.97 1472.02 1529.84 1472.75 1520.95 C 1472.89 1519.27 1475.16 1517.84 1476.52 1516.63 z"/></g><path transform="translate(0,0)" fill="rgb(252,238,212)" d="M 1360.02 529.127 C 1364.37 524.92 1415.21 514.928 1425.27 512.294 C 1450.09 505.908 1474.51 498.051 1498.39 488.765 C 1538.64 472.682 1576.04 452.785 1614.65 433.472 C 1660.07 410.752 1708.96 393.318 1747.01 358.414 C 1752.76 353.139 1765.14 333.56 1769.98 331.604 C 1772.81 332.907 1771.57 331.96 1773.19 335.216 C 1775.9 341.309 1795.33 351.706 1801.53 353.555 C 1812.04 368.062 1707.69 461.306 1692.53 474.32 C 1680.92 484.36 1668.86 493.869 1656.38 502.817 C 1623.45 526.5 1574.37 554.001 1535.47 565.923 C 1533.12 598.674 1506.67 603.806 1501.84 619.611 C 1546.56 608.017 1586.13 589.74 1623.08 561.582 C 1633.2 553.875 1643.46 540.936 1653.32 535.11 C 1638.17 569.866 1579.22 600.039 1544.48 613.701 C 1490.07 635.097 1430.12 642.04 1372.04 638.816 C 1331.1 636.543 1294.01 633.434 1252.93 635.42 C 1193.59 638.288 1142.04 653.216 1086.65 673.309 C 1078.76 676.172 1037.82 686.371 1035.67 688.088 C 1030.99 688.326 1025.36 688.312 1021.85 691.134 C 1015.07 688.086 981.539 695.644 971.747 689.24 C 971.571 690.431 971.815 689.768 970.516 690.966 C 962.386 691.238 958.013 690.884 952.727 684.245 C 950.986 676.061 960.645 674.663 966.931 673.086 C 975.99 673.194 982.184 671.846 990.865 669.78 C 1021.49 686.984 1127.78 617.833 1156.99 601.371 C 1214.02 569.239 1275.01 547.824 1338.97 534.232 C 1345.56 532.833 1353.87 531.426 1360.02 529.127 z"/><path transform="translate(0,0)" fill="rgb(101,93,94)" d="M 1501.84 619.611 C 1546.56 608.017 1586.13 589.74 1623.08 561.582 C 1633.2 553.875 1643.46 540.936 1653.32 535.11 C 1638.17 569.866 1579.22 600.039 1544.48 613.701 C 1490.07 635.097 1430.12 642.04 1372.04 638.816 C 1331.1 636.543 1294.01 633.434 1252.93 635.42 C 1193.59 638.288 1142.04 653.216 1086.65 673.309 C 1078.76 676.172 1037.82 686.371 1035.67 688.088 C 1030.99 688.326 1025.36 688.312 1021.85 691.134 C 1015.07 688.086 981.539 695.644 971.747 689.24 C 977.855 686.52 1006.65 684.578 1016.48 683.198 C 1028.02 681.614 1039.44 679.268 1050.67 676.175 C 1081.87 667.907 1113 655.782 1144.03 646.484 C 1175.1 637.271 1207.05 631.363 1239.35 628.857 C 1330.3 621.697 1411.89 644.685 1501.84 619.611 z"/><path transform="translate(0,0)" fill="rgb(101,93,94)" d="M 1360.02 529.127 C 1364.37 524.92 1415.21 514.928 1425.27 512.294 C 1450.09 505.908 1474.51 498.051 1498.39 488.765 C 1538.64 472.682 1576.04 452.785 1614.65 433.472 C 1660.07 410.752 1708.96 393.318 1747.01 358.414 C 1752.76 353.139 1765.14 333.56 1769.98 331.604 C 1772.81 332.907 1771.57 331.96 1773.19 335.216 C 1766.32 346.87 1759.21 357.031 1749.06 366.159 C 1712.69 398.875 1665.89 416.49 1622.46 437.506 C 1598.09 449.297 1574.32 462.418 1549.9 474.111 C 1510.42 493.239 1469.15 508.423 1426.7 519.444 C 1413.63 522.835 1371.52 532.806 1360.02 529.127 z"/><path transform="translate(0,0)" fill="rgb(101,93,94)" d="M 1801.53 353.555 C 1812.04 368.062 1707.69 461.306 1692.53 474.32 C 1680.92 484.36 1668.86 493.869 1656.38 502.817 C 1623.45 526.5 1574.37 554.001 1535.47 565.923 L 1533.86 564.941 C 1534.44 562.79 1534.93 562.469 1537.13 561.347 C 1557.21 551.122 1577.63 541.496 1597.53 530.896 C 1667.96 493.38 1727.2 436.557 1780.82 378.235 C 1787.15 371.353 1794.48 358.834 1801.53 353.555 z"/><path transform="translate(0,0)" fill="rgb(46,41,54)" d="M 1618.3 116.206 C 1632.21 116.454 1706.16 141.747 1723.92 146.477 C 1728.09 147.586 1734.77 152.054 1738.15 155.507 C 1739.58 159.088 1739.32 162.688 1738.71 166.433 C 1734.74 190.574 1669.22 311.589 1653.75 332.158 C 1651.32 335.387 1648.44 337.568 1645.14 339.852 C 1641.17 341.128 1636.72 341.986 1632.62 340.93 C 1613.61 335.377 1595.78 328.185 1577.25 320.412 C 1564.69 315.139 1532.01 307.517 1527.09 294.858 C 1523.03 284.4 1535.69 266.989 1541.27 257.167 C 1549.93 242.267 1558.09 227.086 1565.74 211.647 C 1573.88 194.827 1581.65 177.832 1589.06 160.676 C 1593.93 149.257 1598.87 136.682 1604.49 125.653 C 1607.59 119.578 1611.96 117.707 1618.3 116.206 z"/><path transform="translate(0,0)" fill="rgb(224,107,62)" d="M 1617.25 127.968 C 1632.25 126.362 1692.15 150.88 1710.62 153.945 C 1714.63 154.611 1726.16 159.299 1727.67 163.431 C 1724.66 185.282 1657.5 307.415 1644.65 326.209 C 1639.48 330.989 1635.12 331.148 1628.52 328.328 C 1600.08 316.183 1569.9 307.086 1541.96 294.204 C 1534.12 290.591 1540.77 280.263 1543.94 275.122 C 1565.96 239.368 1583.95 200.684 1600.73 162.239 C 1604.6 153.401 1611.32 133.877 1617.25 127.968 z"/><path transform="translate(0,0)" fill="rgb(46,41,54)" d="M 1851.23 120.215 L 1851.63 120.247 C 1853.24 120.364 1856.44 120.622 1857.93 121.161 C 1891.33 133.256 1925.35 145.297 1957.95 159.359 C 1966.45 164.021 1968.22 175.01 1964.59 183.499 C 1951.4 214.366 1898.01 333.19 1873.17 346.764 L 1872.72 346.835 C 1858.8 349.137 1829.47 333.842 1814.51 327.639 C 1801.83 322.379 1762.03 311.219 1758.16 297.321 C 1755.39 287.365 1768.82 267.149 1774.58 257.728 C 1799.97 216.239 1817.63 171.434 1838.04 127.562 C 1839.9 123.569 1847.19 121.135 1851.23 120.215 z"/><path transform="translate(0,0)" fill="rgb(224,107,62)" d="M 1849.76 131.717 C 1858.71 131.539 1950.34 166.765 1953.27 170.789 C 1961.87 182.617 1882.71 324.64 1871.61 335.197 C 1868.38 336.515 1867.02 336.801 1863.59 335.584 C 1850.02 330.777 1836.9 324.631 1823.55 319.189 C 1807.78 312.763 1791.44 307.273 1776.11 299.933 C 1772.52 298.21 1770.58 296.223 1769.47 292.494 C 1769.98 289.537 1770.88 286.251 1772.46 283.697 C 1786.04 261.757 1798.19 239.164 1809.76 216.067 C 1815.33 205.036 1820.66 193.887 1825.75 182.628 C 1830.3 172.471 1844.02 137.807 1849.76 131.717 z"/><path transform="translate(0,0)" fill="rgb(101,93,94)" d="M 1046.44 634.229 L 1047.34 636.28 C 1058.17 633.184 1110.86 575.429 1125.32 562.881 C 1140.65 549.655 1157.36 538.113 1175.16 528.452 C 1210.84 509.122 1251.6 496.795 1290.81 486.826 C 1316.71 480.494 1342.68 474.455 1368.71 468.709 C 1418.59 457.369 1491.09 443.719 1519.36 395.759 C 1528.57 380.13 1529.45 355.019 1511.19 344.822 C 1502.35 339.885 1489.88 340.369 1480.44 343.004 C 1465.23 347.255 1438.26 373.59 1466.59 381.669 C 1473.8 383.726 1487.13 376.295 1494.78 377.092 C 1494.23 379.848 1491.25 381.594 1488.82 383.329 C 1473.91 393.934 1441.69 387.938 1447.9 364.408 C 1453.75 342.283 1484.57 329.196 1506.21 335.484 C 1516.63 338.597 1525.36 345.762 1530.43 355.372 C 1534.83 363.88 1533.98 381.14 1530.27 390.035 C 1507.08 445.711 1431.29 461.442 1379.63 473.956 C 1314.46 489.744 1248.39 500.594 1188.33 529.978 C 1165.15 541.385 1143.68 555.986 1124.55 573.353 C 1081.45 612.452 1055.15 655.995 990.865 669.78 C 982.184 671.846 975.99 673.194 966.931 673.086 C 978.941 664.409 1027 656.254 1033.52 643.213 C 1034.18 644.35 1033.68 643.815 1035.3 644.507 C 1040.29 642.381 1044.95 639.705 1046.44 634.229 z"/><path transform="translate(0,0)" fill="rgb(101,93,94)" d="M 1484.5 272.155 C 1488.26 271.968 1488.05 272.096 1490.15 274.44 C 1489.89 279.248 1488.2 278.472 1482.48 279.941 C 1453.19 287.795 1425.17 304.506 1408.59 330.457 C 1393.52 354.036 1391.37 385.918 1425.53 392.169 C 1429.25 392.849 1434.34 392.642 1437.49 394.466 L 1438.07 397.407 C 1429.26 400.31 1415.06 399.061 1407.22 393.993 C 1383.34 378.569 1388.94 346.586 1402.41 326.063 C 1421.41 297.128 1451.08 279.484 1484.5 272.155 z"/><path transform="translate(0,0)" fill="rgb(101,93,94)" d="M 1591.72 363.385 C 1594.01 364.543 1593.89 364.515 1595.95 366.007 C 1598.7 373.701 1589.91 388.762 1586.12 395.516 C 1575.05 415.253 1558.74 432.924 1539.41 444.785 C 1537.56 445.153 1538.57 445.176 1536.4 444.353 C 1537.01 441.464 1546.48 433.408 1549.22 430.771 C 1556.65 423.613 1563.49 415.861 1569.66 407.592 C 1582.82 389.596 1583.28 381.939 1591.35 364.192 L 1591.72 363.385 z"/></svg>
